<svg width="24" height="24" fill="none" viewBox="0 0 24 24" xmlns="http://www.w3.org/2000/svg">
<path d="m3 4.25c-.41421 0-.75.33579-.75.75s.33579.75.75.75zm0 7c-.41421 0-.75.3358-.75.75s.33579.75.75.75zm9 1.5c.4142 0 .75-.3358.75-.75s-.3358-.75-.75-.75zm9 0c.4142 0 .75-.3358.75-.75s-.3358-.75-.75-.75zm0-7c.4142 0 .75-.33579.75-.75s-.3358-.75-.75-.75zm-9 12.5c-.4142 0-.75.3358-.75.75s.3358.75.75.75zm9 1.5c.4142 0 .75-.3358.75-.75s-.3358-.75-.75-.75zm-18-1.5c-.41421 0-.75.3358-.75.75s.33579.75.75.75zm0-12.5h7v-1.5h-7zm0 7h9v-1.5h-9zm16 0h2v-1.5h-2zm-5-7h7v-1.5h-7zm-2 14h9v-1.5h-9zm-9 0h2v-1.5h-2zm5.25-.75c0 .6904-.55964 1.25-1.25 1.25v1.5c1.51878 0 2.75-1.2312 2.75-2.75zm-1.25 1.25c-.69036 0-1.25-.5596-1.25-1.25h-1.5c0 1.5188 1.23122 2.75 2.75 2.75zm-1.25-1.25c0-.6904.55964-1.25 1.25-1.25v-1.5c-1.51878 0-2.75 1.2312-2.75 2.75zm1.25-1.25c.69036 0 1.25.5596 1.25 1.25h1.5c0-1.5188-1.23122-2.75-2.75-2.75zm11.25-5.75c0 .6904-.5596 1.25-1.25 1.25v1.5c1.5188 0 2.75-1.2312 2.75-2.75zm-1.25 1.25c-.6904 0-1.25-.5596-1.25-1.25h-1.5c0 1.5188 1.2312 2.75 2.75 2.75zm-1.25-1.25c0-.6904.5596-1.25 1.25-1.25v-1.5c-1.5188 0-2.75 1.2312-2.75 2.75zm1.25-1.25c.6904 0 1.25.5596 1.25 1.25h1.5c0-1.5188-1.2312-2.75-2.75-2.75zm-3.75-5.75c0 .69036-.5596 1.25-1.25 1.25v1.5c1.5188 0 2.75-1.23122 2.75-2.75zm-1.25 1.25c-.6904 0-1.25-.55964-1.25-1.25h-1.5c0 1.51878 1.2312 2.75 2.75 2.75zm-1.25-1.25c0-.69036.5596-1.25 1.25-1.25v-1.5c-1.5188 0-2.75 1.23122-2.75 2.75zm1.25-1.25c.6904 0 1.25.55964 1.25 1.25h1.5c0-1.51878-1.2312-2.75-2.75-2.75z" fill="gray">
</path>
</svg>